<?xml version="1.0" encoding="UTF-8" standalone="no"?>
<!-- Uploaded to: SVG Repo, www.svgrepo.com, Generator: SVG Repo Mixer Tools -->

<svg
   fill="#000000"
   version="1.1"
   id="Capa_1"
   width="57"
   height="44"
   viewBox="0 0 43.605 33.66"
   xml:space="preserve"
   sodipodi:docname="bike-motorcycle-icon.svg"
   inkscape:version="1.3.2 (091e20e, 2023-11-25, custom)"
   xmlns:inkscape="http://www.inkscape.org/namespaces/inkscape"
   xmlns:sodipodi="http://sodipodi.sourceforge.net/DTD/sodipodi-0.dtd"
   xmlns="http://www.w3.org/2000/svg"
   xmlns:svg="http://www.w3.org/2000/svg"><defs
   id="defs1" /><sodipodi:namedview
   id="namedview1"
   pagecolor="#ffffff"
   bordercolor="#000000"
   borderopacity="0.25"
   inkscape:showpageshadow="2"
   inkscape:pageopacity="0.0"
   inkscape:pagecheckerboard="0"
   inkscape:deskcolor="#d1d1d1"
   inkscape:zoom="5.7487781"
   inkscape:cx="15.742476"
   inkscape:cy="0.95672505"
   inkscape:window-width="1920"
   inkscape:window-height="1009"
   inkscape:window-x="-8"
   inkscape:window-y="-8"
   inkscape:window-maximized="1"
   inkscape:current-layer="Capa_1" />

<text
   xml:space="preserve"
   style="font-weight:bold;font-size:8.30445px;font-family:Arial;-inkscape-font-specification:'Arial Bold';fill:#1a1a1a;stroke-width:0.692038"
   x="0.61643893"
   y="7.6547384"
   id="text1"><tspan
     sodipodi:role="line"
     id="tspan1"
     style="fill:#1a1a1a;stroke-width:0.692038"
     x="0.61643893"
     y="7.6547384">B 6124 ZIK</tspan></text><g
   id="g2"
   transform="matrix(0.25385198,0,0,0.25385198,5.6191923,10.355246)"><path
     class="st0"
     d="m 50.7,36.7 -0.16,-0.68 c -2.39,0.65 -4.79,0.86 -7.21,0.78 -2.76,-0.09 -5.52,-0.56 -8.28,-1.19 -1.35,-0.31 -2.53,-0.64 -3.65,-0.96 -2.52,-0.71 -4.74,-1.33 -7.8,-1.36 -0.03,0 -0.05,0 -0.08,0 v 0 l -11.07,-0.94 -2.18,3.14 c 6.36,2.46 14.26,4.18 21.86,4.85 7.17,0.63 14.04,0.34 19.05,-1.14 z m 53.95,9.56 c 10.07,0 18.23,8.16 18.23,18.23 0,10.07 -8.16,18.23 -18.23,18.23 -10.07,0 -18.23,-8.16 -18.23,-18.23 0,-6.08 2.97,-11.46 7.54,-14.77 l -5.29,-10.4 -9.71,29.2 h -4.29 c 0,0.12 0,0.24 -0.02,0.35 -0.36,1.98 -0.97,3.58 -1.83,4.78 -0.96,1.34 -2.21,2.2 -3.76,2.57 -1.89,0.45 -7.19,-0.4 -10.65,-0.95 C 57.49,75.12 56.7,75 56.19,74.93 L 44.78,73.4 44.73,73.58 c -0.27,1.08 -1.32,1.79 -2.44,1.61 l -7.08,-1.16 c -0.76,1.2 -1.66,2.3 -2.67,3.29 -3.35,3.28 -7.99,5.31 -13.1,5.31 C 14.33,82.63 9.7,80.6 6.34,77.32 2.98,74.03 0.9,69.49 0.9,64.48 c 0,-5.01 2.08,-9.55 5.44,-12.84 3.35,-3.28 7.99,-5.31 13.1,-5.31 5.11,0 9.74,2.03 13.1,5.31 3.36,3.29 5.44,7.83 5.44,12.84 0,0.56 -0.03,1.11 -0.08,1.65 l 6.17,1.71 c 1.06,0.29 1.72,1.34 1.56,2.4 l 10.97,1.47 c 0.57,0.08 1.37,0.2 2.31,0.35 3.2,0.51 8.11,1.29 9.4,0.99 0.76,-0.18 1.38,-0.62 1.87,-1.3 0.56,-0.78 0.97,-1.87 1.24,-3.25 H 45.37 C 37.45,41.52 17.65,37.82 6.29,47.48 L 0,47.4 C 1.88,42.84 6.3,39.88 11.67,38.29 10.48,37.88 9.34,37.45 8.24,36.99 8.15,36.96 8.07,36.92 7.99,36.86 7.5,36.52 7.38,35.85 7.72,35.36 l 3.29,-4.74 c 0.21,-0.32 0.59,-0.52 1,-0.49 l 11.69,0.99 v 0 c 3.33,0.05 5.65,0.7 8.29,1.44 1.1,0.31 2.26,0.63 3.55,0.93 2.64,0.61 5.27,1.06 7.86,1.14 2.49,0.08 4.97,-0.17 7.42,-0.96 0.8,-0.71 1.61,-1.39 2.45,-2.04 0.87,-0.68 1.79,-1.34 2.77,-1.99 2.61,-1.74 5.29,-3.13 8.12,-4.08 2.85,-0.95 5.84,-1.45 9.07,-1.39 1.99,0.04 3.92,0.34 5.75,0.97 1.26,0.44 2.48,1.03 3.64,1.79 0.01,-0.2 0.08,-0.4 0.2,-0.56 l -5.77,-4.33 h -9.02 c -1.05,0 -1.89,-0.85 -1.89,-1.89 0,-1.05 0.85,-1.89 1.89,-1.89 h 8.31 v -7.54 h 0.01 V 10.68 C 76.36,10.43 76.35,10.2 76.32,10 76.3,9.83 76.26,9.67 76.21,9.51 76.05,9.02 75.71,8.81 75.25,8.53 75.22,8.52 75.2,8.5 75.17,8.49 75.12,8.46 75.07,8.43 74.95,8.36 l -0.08,1.3 c -0.05,0.77 -0.71,1.36 -1.49,1.31 -0.77,-0.05 -1.36,-0.71 -1.31,-1.49 l 0.52,-8.19 c 0.05,-0.77 0.71,-1.36 1.49,-1.31 0.77,0.05 1.36,0.71 1.31,1.49 l -0.24,3.73 1.05,0.64 0.39,0.23 c 0.03,0.01 0.05,0.03 0.07,0.05 1,0.58 1.73,1.04 2.22,2.53 0.1,0.3 0.17,0.63 0.22,1 0.04,0.33 0.06,0.69 0.05,1.07 v 0 8.19 l 3.66,2.74 0.33,-0.38 -0.86,-0.62 C 81.8,20.3 81.69,19.62 82.04,19.14 82.07,19.1 82.1,19.06 82.13,19.03 L 85.5,15.1 c 0.39,-0.45 1.07,-0.51 1.52,-0.12 l 0.02,0.02 3.15,2.59 c 0.46,0.38 0.53,1.06 0.15,1.52 l -0.02,0.03 v 0 l -3.29,3.75 c -0.13,0.15 -0.29,0.25 -0.46,0.31 v 0 l -1.17,0.4 1.07,0.8 0.03,0.03 0.32,-0.16 c 0.53,-0.26 1.18,-0.04 1.45,0.49 l 0.02,0.03 1.54,2.94 c 0.74,-1.66 2.39,-2.8 3.83,-3.8 0.3,-0.21 0.6,-0.42 0.86,-0.61 1.13,-0.84 2.18,-1.38 3.13,-1.62 1.05,-0.27 2,-0.19 2.81,0.21 0.81,0.41 1.44,1.12 1.85,2.13 0.37,0.91 0.57,2.06 0.57,3.44 v 3.98 c 0,0.05 0,0.11 -0.01,0.16 -0.11,1.76 -0.51,3.03 -1.14,3.89 -0.39,0.53 -0.85,0.9 -1.38,1.14 -0.53,0.24 -1.1,0.33 -1.7,0.3 -1.29,-0.07 -2.74,-0.74 -4.24,-1.85 l -1.15,-0.85 6.79,12.58 c 1.46,-0.37 3.01,-0.57 4.6,-0.57 z m -8.84,2.28 c 0.69,-0.39 1.41,-0.73 2.16,-1.02 L 86.95,26.9 c -0.03,0.05 -0.06,0.1 -0.1,0.15 -0.45,0.28 -1.01,0.63 -1.55,0.75 z m -82.97,10.68 4.52,1.25 c 0.33,-0.16 0.67,-0.28 1.04,-0.36 l 0.28,-7.2 h -0.05 l -0.09,0.01 c -0.08,0.01 -0.16,0.01 -0.24,0.02 h -0.03 -0.01 c -0.09,0.01 -0.17,0.02 -0.26,0.03 l -0.09,0.01 C 17.85,52.99 17.79,53 17.74,53 l -0.1,0.02 c -0.06,0.01 -0.12,0.02 -0.17,0.03 l -0.09,0.02 c -0.07,0.01 -0.14,0.03 -0.21,0.04 l -0.05,0.01 c -0.09,0.02 -0.17,0.04 -0.26,0.06 l -0.08,0.02 c -0.06,0.01 -0.12,0.03 -0.18,0.04 l -0.1,0.03 -0.17,0.05 -0.09,0.02 c -0.07,0.02 -0.14,0.04 -0.2,0.06 l -0.05,0.01 c -0.08,0.03 -0.16,0.05 -0.24,0.08 l -0.09,0.03 c -0.05,0.02 -0.11,0.04 -0.16,0.06 l -0.1,0.04 -0.15,0.06 -0.1,0.04 c -0.05,0.02 -0.1,0.04 -0.15,0.06 l -0.09,0.04 c -0.07,0.03 -0.15,0.06 -0.22,0.1 l -0.09,0.04 -0.14,0.07 -0.11,0.05 -0.12,0.06 -0.11,0.06 -0.12,0.04 -0.1,0.05 h -0.01 c -0.07,0.04 -0.13,0.07 -0.2,0.11 v 0 l -0.12,0.07 -0.09,0.05 c -0.04,0.02 -0.08,0.05 -0.12,0.08 l -0.09,0.06 -0.12,0.08 -0.09,0.06 -0.13,0.08 -0.03,0.02 c -0.1,0.07 -0.2,0.14 -0.3,0.21 l -0.06,0.04 -0.13,0.1 -0.07,0.06 c -0.04,0.03 -0.08,0.06 -0.12,0.1 l -0.06,0.05 c -0.15,0.12 -0.3,0.25 -0.45,0.38 l -0.03,0.02 c -0.04,0.04 -0.09,0.08 -0.13,0.12 l -0.05,0.05 c -0.04,0.04 -0.08,0.08 -0.13,0.12 l -0.05,0.05 c -0.04,0.04 -0.08,0.08 -0.12,0.12 l -0.02,0.02 c -0.15,0.15 -0.29,0.3 -0.42,0.45 l -0.03,0.03 c -0.04,0.05 -0.08,0.1 -0.13,0.15 L 10.59,57 c -0.15,0.17 -0.29,0.35 -0.43,0.54 z m 12.22,3.38 6,1.66 c -0.03,-1.53 -0.36,-3 -0.93,-4.33 z m 2.51,10.19 -7.26,-1.19 -0.11,4.48 0.12,-0.01 h 0.05 c 0.09,-0.01 0.17,-0.01 0.26,-0.02 l 0.06,-0.01 c 0.08,-0.01 0.15,-0.02 0.23,-0.03 h 0.04 C 21.04,76 21.12,75.99 21.2,75.98 l 0.08,-0.01 c 0.08,-0.01 0.16,-0.03 0.25,-0.04 h 0.01 c 0.08,-0.01 0.16,-0.03 0.24,-0.05 l 0.06,-0.01 c 0.08,-0.02 0.16,-0.03 0.24,-0.05 l 0.04,-0.01 c 0.07,-0.02 0.14,-0.03 0.21,-0.05 l 0.06,-0.02 c 0.08,-0.02 0.16,-0.04 0.23,-0.06 l 0.06,-0.02 c 0.07,-0.02 0.15,-0.04 0.22,-0.07 l 0.02,-0.01 h 0.01 c 0.07,-0.02 0.15,-0.05 0.22,-0.07 l 0.08,-0.03 c 0.07,-0.02 0.14,-0.05 0.21,-0.08 l 0.06,-0.02 c 0.06,-0.02 0.11,-0.04 0.17,-0.07 l 0.08,-0.03 c 0.07,-0.03 0.13,-0.05 0.2,-0.08 l 0.09,-0.04 0.14,-0.06 0.08,-0.04 c 0.06,-0.03 0.12,-0.06 0.18,-0.09 l 0.11,-0.05 0.12,-0.06 c 0.05,-0.03 0.1,-0.05 0.15,-0.08 l 0.11,-0.06 0.11,-0.06 c 0.05,-0.03 0.1,-0.05 0.15,-0.08 0.04,-0.02 0.08,-0.05 0.13,-0.07 l 0.1,-0.06 0.11,-0.07 c 0.05,-0.03 0.1,-0.06 0.15,-0.09 v 0 l 0.12,-0.08 0.07,-0.04 c 0.07,-0.05 0.14,-0.09 0.2,-0.14 l 0.04,-0.03 0.12,-0.09 0.05,-0.03 c 0.08,-0.06 0.15,-0.11 0.23,-0.17 l 0.03,-0.03 c 0.04,-0.03 0.08,-0.07 0.13,-0.1 l 0.02,-0.01 c 0.08,-0.06 0.16,-0.13 0.24,-0.19 l 0.05,-0.04 c 0.13,-0.11 0.25,-0.22 0.37,-0.33 v 0 c 0.07,-0.07 0.14,-0.14 0.22,-0.22 z m -9.41,-1.54 -6.88,-1.13 -1.49,0.81 0.01,0.02 c 0.03,0.04 0.06,0.08 0.09,0.13 l 0.06,0.09 0.09,0.12 0.06,0.09 c 0.03,0.04 0.06,0.08 0.09,0.12 l 0.06,0.08 0.09,0.12 0.07,0.08 c 0.03,0.04 0.06,0.08 0.1,0.12 0.03,0.03 0.05,0.06 0.08,0.1 0.03,0.03 0.05,0.06 0.08,0.1 v 0 c 0.05,0.06 0.11,0.12 0.16,0.18 l 0.1,0.11 0.08,0.08 c 0.03,0.03 0.06,0.06 0.09,0.1 l 0.09,0.1 0.09,0.08 0.1,0.1 0.09,0.09 0.09,0.09 0.1,0.09 0.09,0.08 0.1,0.08 0.11,0.09 c 0.03,0.03 0.06,0.05 0.09,0.08 0.06,0.05 0.13,0.1 0.19,0.15 v 0 l 0.08,0.06 c 0.04,0.03 0.08,0.06 0.13,0.1 l 0.1,0.08 0.1,0.08 0.11,0.08 0.11,0.08 0.11,0.08 0.11,0.07 0.11,0.07 c 0.04,0.03 0.08,0.05 0.12,0.08 l 0.1,0.06 c 0.05,0.03 0.1,0.06 0.15,0.09 l 0.08,0.05 c 0.08,0.04 0.15,0.09 0.23,0.13 l 0.08,0.04 c 0.05,0.03 0.1,0.06 0.16,0.08 l 0.1,0.05 0.14,0.07 0.1,0.05 0.14,0.07 0.11,0.05 c 0.05,0.02 0.09,0.04 0.14,0.06 l 0.1,0.04 c 0.05,0.02 0.11,0.04 0.16,0.07 l 0.09,0.04 c 0.07,0.03 0.15,0.06 0.22,0.08 l 0.03,0.01 h 0.01 c 0.08,0.03 0.16,0.06 0.25,0.09 l 0.08,0.03 c 0.06,0.02 0.11,0.04 0.17,0.06 l 0.09,0.03 c 0.06,0.02 0.12,0.03 0.17,0.05 l 0.09,0.03 0.16,0.04 0.11,0.03 c 0.06,0.01 0.12,0.03 0.17,0.04 l 0.09,0.02 c 0.06,0.01 0.12,0.03 0.19,0.04 l 0.09,0.02 c 0.08,0.02 0.15,0.03 0.23,0.04 l 0.03,0.01 v 0 c 0.09,0.02 0.18,0.03 0.26,0.04 l 0.11,0.02 c 0.05,0.01 0.11,0.02 0.16,0.02 l 0.11,0.01 z M 10.99,60.95 8.4,60.9 6.1,60.86 5.07,64.7 l 4.01,2.88 9.76,1.6 1.53,0.25 6.97,1.14 v 0 l 1.82,0.3 7.16,1.17 v 0 l 6.15,1.01 c 0.31,-0.52 0.81,-2.59 1.04,-3.07 L 43.52,69.94 35.69,67.78 30.9,66.46 15.42,62.19 11.96,61.23 Z M 95.07,26 c -1.29,0.9 -2.8,1.94 -3.08,3.11 -0.13,0.54 -0.16,0.82 -0.08,0.96 0.09,0.18 0.41,0.42 0.9,0.78 l 3.06,2.25 c 1.12,0.82 2.13,1.32 2.9,1.37 0.21,0.01 0.39,-0.01 0.54,-0.08 0.14,-0.06 0.27,-0.18 0.39,-0.34 0.35,-0.48 0.59,-1.31 0.66,-2.56 V 31.48 27.5 c 0,-1.07 -0.13,-1.9 -0.37,-2.49 -0.17,-0.42 -0.4,-0.7 -0.66,-0.83 -0.26,-0.13 -0.62,-0.14 -1.07,-0.03 -0.64,0.16 -1.4,0.56 -2.26,1.2 -0.29,0.21 -0.6,0.42 -0.93,0.65 z m -12.51,6 -0.11,-2.51 c -1.3,-1.04 -2.7,-1.79 -4.18,-2.29 -1.63,-0.56 -3.33,-0.83 -5.09,-0.86 -2.97,-0.06 -5.73,0.4 -8.35,1.28 -2.64,0.88 -5.15,2.19 -7.6,3.83 -0.89,0.59 -1.77,1.23 -2.64,1.91 -0.7,0.54 -1.37,1.09 -2.01,1.66 l 0.22,1.14 0.65,2.74 24.76,0.09 c 0.03,0 0.07,0 0.1,0 v 0 c 0.66,0.06 1.23,0.02 1.72,-0.11 0.44,-0.13 0.82,-0.34 1.13,-0.62 1.6,-1.46 1.5,-3.96 1.41,-6.14 z m -36.8,14.19 9.51,-0.13 c 0.69,-0.01 1.34,0.58 1.26,1.26 l -0.71,6.13 c -0.08,0.69 -0.57,1.26 -1.26,1.26 h -6.01 c -0.69,0 -0.97,-0.63 -1.26,-1.26 l -2.8,-6 c -0.29,-0.63 0.57,-1.25 1.27,-1.26 z m 22.3,-0.76 h 8.6 c 0.69,0 1.42,0.59 1.26,1.26 l -1.82,7.74 c -0.16,0.67 -0.57,1.26 -1.26,1.26 h -6.01 c -0.69,0 -1.19,-0.57 -1.26,-1.26 L 66.79,46.69 C 66.73,46 67.37,45.43 68.06,45.43 Z m -53.69,23.01 -3.09,1.68 z m 3.69,0.61 0.78,0.13 z M 29.1,58.03 c -1.84,-2.74 -4.82,-4.65 -8.26,-5.06 l -0.27,7.19 c 0.81,0.21 1.53,0.63 2.1,1.2 v 0 l 0.04,0.04 z M 11.98,73.38 c 0.03,0.03 0.06,0.05 0.09,0.08 z m 92.13,-13.37 0.28,-7.3 c -3.63,0.08 -6.85,1.8 -8.96,4.45 l 6.45,4.06 c 0.6,-0.6 1.37,-1.02 2.23,-1.21 z m 2.43,-7.16 -0.27,7.2 c 0.8,0.21 1.53,0.63 2.1,1.2 v 0 0 0 l 0.04,0.04 6.12,-3.23 c -1.77,-2.72 -4.64,-4.67 -7.99,-5.21 z m 9,7.13 -6.02,3.18 c 0.13,0.43 0.21,0.89 0.21,1.36 0,0.42 -0.05,0.82 -0.16,1.2 l 5.8,3.65 c 0.68,-1.49 1.06,-3.15 1.06,-4.89 0,-1.59 -0.31,-3.11 -0.89,-4.5 z m -1.25,11.27 -5.76,-3.63 c -0.05,0.06 -0.11,0.11 -0.16,0.17 -0.62,0.62 -1.4,1.06 -2.28,1.25 l -0.18,7.15 c 3.46,-0.36 6.48,-2.23 8.38,-4.94 z m -10.54,4.97 0.18,-7.23 c -0.8,-0.21 -1.52,-0.63 -2.09,-1.2 -0.08,-0.09 -0.17,-0.17 -0.24,-0.26 l -6.65,3.62 c 1.95,2.85 5.14,4.8 8.8,5.07 z m -9.86,-6.96 6.72,-3.66 c -0.08,-0.35 -0.13,-0.71 -0.13,-1.08 0,-0.52 0.09,-1.02 0.24,-1.48 l -6.48,-4.08 c -0.88,1.65 -1.37,3.52 -1.37,5.52 0.01,1.7 0.37,3.32 1.02,4.78 z m 13.07,-6.6 c -0.47,-0.47 -1.13,-0.76 -1.86,-0.76 -0.73,0 -1.38,0.29 -1.86,0.77 -0.12,0.12 -0.23,0.25 -0.32,0.39 -0.01,0.02 -0.02,0.04 -0.04,0.06 -0.01,0.02 -0.03,0.04 -0.04,0.06 -0.23,0.39 -0.36,0.85 -0.36,1.33 0,0.73 0.29,1.38 0.77,1.86 0.47,0.47 1.13,0.77 1.86,0.77 0.72,0 1.38,-0.29 1.86,-0.77 0.14,-0.14 0.26,-0.29 0.36,-0.45 0.03,-0.09 0.07,-0.18 0.12,-0.27 0.02,-0.04 0.05,-0.07 0.07,-0.1 0.14,-0.32 0.21,-0.67 0.21,-1.04 0,-0.72 -0.29,-1.37 -0.77,-1.85 z"
     id="path1"
     style="clip-rule:evenodd;fill-rule:evenodd" /></g></svg>
