<?xml version="1.0" encoding="UTF-8" standalone="no"?>
<!-- Uploaded to: SVG Repo, www.svgrepo.com, Generator: SVG Repo Mixer Tools -->

<svg
   fill="#000000"
   version="1.1"
   id="Capa_1"
   width="57"
   height="44"
   viewBox="0 0 43.605 33.66"
   xml:space="preserve"
   sodipodi:docname="delivery-truck-svgrepo-com.svg"
   inkscape:version="1.3.2 (091e20e, 2023-11-25, custom)"
   xmlns:inkscape="http://www.inkscape.org/namespaces/inkscape"
   xmlns:sodipodi="http://sodipodi.sourceforge.net/DTD/sodipodi-0.dtd"
   xmlns="http://www.w3.org/2000/svg"
   xmlns:svg="http://www.w3.org/2000/svg"><defs
   id="defs1" /><sodipodi:namedview
   id="namedview1"
   pagecolor="#ffffff"
   bordercolor="#000000"
   borderopacity="0.25"
   inkscape:showpageshadow="2"
   inkscape:pageopacity="0.0"
   inkscape:pagecheckerboard="0"
   inkscape:deskcolor="#d1d1d1"
   inkscape:zoom="5.7487781"
   inkscape:cx="5.1315253"
   inkscape:cy="26.353426"
   inkscape:window-width="1920"
   inkscape:window-height="1009"
   inkscape:window-x="-8"
   inkscape:window-y="-8"
   inkscape:window-maximized="1"
   inkscape:current-layer="Capa_1" />
<g
   id="g1"
   transform="matrix(0.07014922,0,0,0.07014922,0.3330045,-0.00889583)">
	<path
   d="m 34.533,390.596 c -10.214,8.754 -17.231,21.053 -19.316,35.02 H 6.949 C 3.127,425.616 0,422.489 0,418.667 v -21.123 c 0,-3.822 3.126,-6.947 6.949,-6.947 h 27.584 z m 79.626,35.019 c 0.556,2.709 0.834,5.418 0.834,8.268 0,23.832 -19.316,43.217 -43.218,43.217 -23.832,0 -43.218,-19.385 -43.218,-43.217 0,-2.85 0.277,-5.559 0.833,-8.268 3.821,-19.943 21.331,-35.02 42.384,-35.02 21.053,0 38.633,15.077 42.385,35.02 z m -20.775,8.268 c 0,-2.918 -0.555,-5.768 -1.667,-8.268 -3.196,-7.852 -10.909,-13.342 -19.941,-13.342 -9.033,0 -16.745,5.49 -19.942,13.342 -1.112,2.5 -1.667,5.35 -1.667,8.268 0,11.881 9.658,21.609 21.609,21.609 11.951,0 21.608,-9.728 21.608,-21.609 z M 17.106,362.873 V 155.745 c 0,-11.512 9.333,-20.845 20.845,-20.845 h 332.125 c 11.513,0 20.845,9.333 20.845,20.845 v 207.128 c 0,3.82 -3.126,6.947 -6.948,6.947 H 24.055 c -3.822,0 -6.949,-3.127 -6.949,-6.947 z m 323.37,-23.385 c 0,3.299 2.674,5.973 5.973,5.973 h 0.186 c 3.298,0 5.972,-2.674 5.972,-5.973 V 167.625 c 0,-3.298 -2.674,-5.972 -5.972,-5.972 h -0.186 c -3.299,0 -5.973,2.674 -5.973,5.972 z m -56.162,0 c 0,3.299 2.673,5.973 5.971,5.973 h 0.186 c 3.299,0 5.972,-2.674 5.972,-5.973 V 167.625 c 0,-3.298 -2.673,-5.972 -5.972,-5.972 h -0.186 c -3.298,0 -5.971,2.674 -5.971,5.972 z m -56.163,0 c 0,3.299 2.674,5.973 5.972,5.973 h 0.186 c 3.298,0 5.972,-2.674 5.972,-5.973 V 167.625 c 0,-3.298 -2.674,-5.972 -5.972,-5.972 h -0.186 c -3.298,0 -5.972,2.674 -5.972,5.972 z m -56.161,0 c 0,3.299 2.674,5.973 5.972,5.973 h 0.186 c 3.298,0 5.972,-2.674 5.972,-5.973 V 167.625 c 0,-3.298 -2.674,-5.972 -5.972,-5.972 h -0.186 c -3.298,0 -5.972,2.674 -5.972,5.972 z m -56.162,0 c 0,3.299 2.673,5.973 5.972,5.973 h 0.186 c 3.298,0 5.971,-2.674 5.971,-5.973 V 167.625 c 0,-3.298 -2.673,-5.972 -5.971,-5.972 H 121.8 c -3.299,0 -5.972,2.674 -5.972,5.972 z m -56.162,0 c 0,3.299 2.674,5.973 5.972,5.973 h 0.186 c 3.299,0 5.972,-2.674 5.972,-5.973 V 167.625 c 0,-3.298 -2.673,-5.972 -5.972,-5.972 h -0.186 c -3.298,0 -5.972,2.674 -5.972,5.972 z m 161.149,86.127 c 0.556,2.709 0.834,5.418 0.834,8.268 0,23.832 -19.316,43.217 -43.218,43.217 -23.833,0 -43.218,-19.385 -43.218,-43.217 0,-2.85 0.278,-5.559 0.833,-8.268 3.822,-19.943 21.332,-35.02 42.385,-35.02 21.053,0 38.632,15.077 42.384,35.02 z m -20.775,8.268 c 0,-2.918 -0.556,-5.768 -1.598,-8.268 -3.266,-7.852 -10.979,-13.342 -20.011,-13.342 -9.032,0 -16.746,5.49 -20.011,13.342 -1.042,2.5 -1.598,5.35 -1.598,8.268 0,11.881 9.658,21.609 21.61,21.609 11.95,0 21.608,-9.728 21.608,-21.609 z m -58.852,-43.287 h -32.169 c 7.087,6.113 12.715,13.965 16.12,22.859 3.334,-8.893 8.962,-16.746 16.049,-22.859 z M 612,397.543 v 21.123 c 0,3.822 -3.127,6.949 -6.948,6.949 h -56.28 c -4.03,-27.586 -27.724,-48.916 -56.42,-48.916 -28.696,0 -52.459,21.33 -56.489,48.916 H 234.989 c -2.084,-13.967 -9.102,-26.266 -19.316,-35.02 H 410.78 V 191.876 c 0,-7.644 6.183,-13.897 13.896,-13.897 h 65.592 c 18.482,0 35.714,9.172 46.065,24.458 l 42.315,62.673 c 6.184,9.172 9.519,20.011 9.519,31.058 v 94.427 h 16.884 c 3.822,10e-4 6.949,3.126 6.949,6.948 z M 541.545,266.708 507.707,218.626 c -1.32,-1.806 -3.404,-2.918 -5.697,-2.918 h -52.736 c -3.821,0 -6.949,3.126 -6.949,6.949 v 48.012 c 0,3.891 3.128,6.948 6.949,6.948 h 86.574 c 5.629,0 8.893,-6.323 5.697,-10.909 z m -5.976,167.175 c 0,23.832 -19.385,43.217 -43.218,43.217 -23.902,0 -43.218,-19.385 -43.218,-43.217 0,-23.902 19.316,-43.287 43.218,-43.287 23.834,0 43.218,19.384 43.218,43.287 z m -21.608,0 c 0,-11.951 -9.658,-21.609 -21.609,-21.609 -11.951,0 -21.609,9.658 -21.609,21.609 0,11.881 9.658,21.609 21.609,21.609 11.951,0 21.609,-9.728 21.609,-21.609 z"
   id="path1" />
</g>
<text
   xml:space="preserve"
   style="font-weight:bold;font-size:9.25532px;font-family:Arial;-inkscape-font-specification:'Arial Bold';fill:#1a1a1a;stroke-width:0.771277"
   x="2.9420865"
   y="7.805892"
   id="text1"><tspan
     sodipodi:role="line"
     id="tspan1"
     style="fill:#1a1a1a;stroke-width:0.771277"
     x="2.9420865"
     y="7.805892">B 44II IK</tspan></text></svg>
